<svg xmlns="http://www.w3.org/2000/svg" width="256" height="256" viewBox="0 0 100 100"><rect width="100" height="100" rx="50" fill="#537188"></rect><path fill="#eeeeee" d="M45.99 18.86L47.52 21.20L44.55 28.94Q40.14 26.60 34.92 26.60Q29.70 26.60 26.51 28.49Q23.31 30.38 23.31 34.43L23.31 34.43Q23.31 39.38 31.59 45.68L31.59 45.68Q35.02 48.29 38.44 51.04Q41.85 53.78 44.28 57.34Q46.71 60.89 46.71 64.04Q46.71 67.19 45.68 69.76Q44.64 72.32 42.22 75.02Q39.78 77.72 34.66 79.43Q29.52 81.14 23.13 81.14Q16.74 81.14 11.79 79.61L11.79 79.61Q10.80 78.08 10.80 76.91Q10.80 75.74 10.94 75.74Q11.07 75.74 12.24 76.10L12.24 76.10Q15.93 77.09 19.63 77.09L19.63 77.09Q27.18 77.09 31.91 74.03Q36.63 70.97 36.63 66.20L36.63 66.20Q36.63 60.80 28.89 54.59L28.89 54.59Q25.66 51.98 22.41 49.37L22.41 49.37Q14.67 43.16 14.67 37.22L14.67 37.22Q14.67 33.44 17.82 29.84L17.82 29.84Q24.75 21.83 45.99 18.86L45.99 18.86ZM55.90 80.15L55.90 80.15Q55.63 80.42 54.37 80.42Q53.11 80.42 51.84 79.16L51.84 79.16Q58.33 68.09 63.81 59.54L63.81 59.54Q56.08 47.21 54.81 36.50L54.81 36.50L57.06 34.97L64.27 38.57Q65.17 45.23 68.41 52.61L68.41 52.61Q75.16 42.62 79.92 36.68L79.92 36.68L87.22 35.42L89.19 36.86Q78.84 48.65 71.28 58.73L71.28 58.73Q76.59 68.99 85.23 80.15L85.23 80.15Q85.23 80.78 84.34 80.78L84.34 80.78Q81.45 80.78 80.38 79.88L80.38 79.88Q73.00 72.77 66.97 64.40L66.97 64.40Q60.30 73.58 55.90 80.15Z"></path></svg>